<?xml version="1.0" encoding="UTF-8"?>
<!DOCTYPE svg PUBLIC "-//W3C//DTD SVG 1.1//EN"
  "http://www.w3.org/Graphics/SVG/1.1/DTD/svg11.dtd">
<!-- Created with Inkpad (http://www.taptrix.com/) --><svg xmlns:inkpad="http://taptrix.com/inkpad/svg_extensions" height="25pt" xmlns:xlink="http://www.w3.org/1999/xlink" xmlns="http://www.w3.org/2000/svg" width="25pt" version="1.1" viewBox="0,0,25,25">
<defs/>
<g id="Canvas" inkpad:layerName="Canvas">
<path d="M0+0M12.5-3.15905e-08C19.4034-3.15905e-08+25+5.59656+25+12.5C25+19.4034+19.4034+25+12.5+25C5.59625+25-3.15905e-08+19.4034-3.15905e-08+12.5C-3.15905e-08+5.59656+5.59625-3.15905e-08+12.5-3.15905e-08ZM20.0212+16.6184L20.0172+8.57719L15.2266+11.8744L20.0212+16.6184ZM14.4381+12.3172L12.7331+13.4597C12.6606+13.5069+12.5766+13.5313+12.4944+13.5313C12.4113+13.5313+12.3288+13.5072+12.2563+13.46L10.5109+12.2834L5.57156+17.1703L19.4366+17.1703L14.4381+12.3172ZM9.76844+11.7825L4.98969+8.56063L4.98969+16.5888L9.76844+11.7825ZM12.4941+12.5734L19.4353+7.91062L5.58312+7.91062L12.4941+12.5734Z" opacity="1" fill="#219653"/>
</g>
</svg>
