<?xml version="1.0" encoding="UTF-8"?>
<!DOCTYPE svg PUBLIC "-//W3C//DTD SVG 1.1//EN"
  "http://www.w3.org/Graphics/SVG/1.1/DTD/svg11.dtd">
<!-- Created with Inkpad (http://www.taptrix.com/) --><svg xmlns:inkpad="http://taptrix.com/inkpad/svg_extensions" height="25pt" xmlns:xlink="http://www.w3.org/1999/xlink" xmlns="http://www.w3.org/2000/svg" width="25pt" version="1.1" viewBox="0,0,25,25">
<defs/>
<g id="Canvas" inkpad:layerName="Canvas">
<path d="M0+0M12.5+25C5.59625+25+0+19.4037+0+12.5C0+5.59625+5.59625+0+12.5+0C19.4037+0+25+5.59625+25+12.5C25+19.4037+19.4037+25+12.5+25ZM15.1038+14.0625C14.425+14.6088+13.8925+15.31+13.5538+16.1125C11.4525+15.1875+9.8125+13.5475+8.8775+11.5175C9.69+11.1075+10.39+10.575+10.9288+9.90625C10.7913+8.39125+10.01+7.09375+8.8675+6.26C7.34375+6.81125+6.2825+8.22625+6.24875+9.8925C6.36375+14.6437+10.1063+18.4825+14.8038+18.7488C16.575+18.7275+18.07+17.675+18.7375+16.1737C17.905+14.99+16.6075+14.2088+15.1225+14.0638L15.1038+14.0625Z" opacity="1" fill="#219653"/>
</g>
</svg>
